<svg xmlns="http://www.w3.org/2000/svg" width="35" height="34.135" viewBox="0 0 35 34.135">
  <path id="github" d="M17.5,0a17.5,17.5,0,0,0-5.53,34.108c.875.157,1.19-.382,1.19-.845,0-.415-.012-1.516-.021-2.975-4.868,1.055-5.9-2.345-5.9-2.345A4.624,4.624,0,0,0,5.3,25.38c-1.587-1.085.122-1.064.122-1.064a3.666,3.666,0,0,1,2.677,1.8,3.724,3.724,0,0,0,5.1,1.452,3.742,3.742,0,0,1,1.11-2.336c-3.885-.443-7.971-1.942-7.971-8.65a6.766,6.766,0,0,1,1.8-4.7A6.268,6.268,0,0,1,8.3,7.257s1.47-.469,4.812,1.8a16.581,16.581,0,0,1,8.766,0c3.342-2.265,4.807-1.8,4.807-1.8a6.255,6.255,0,0,1,.175,4.632,6.766,6.766,0,0,1,1.8,4.7c0,6.723-4.1,8.2-7.991,8.636a4.172,4.172,0,0,1,1.186,3.241c0,2.338-.017,4.226-.017,4.8,0,.467.315,1.011,1.2.84A17.5,17.5,0,0,0,17.5,0" fill="#191717" fill-rule="evenodd"/>
</svg>
