<svg id="google" xmlns="http://www.w3.org/2000/svg" width="32" height="32.653" viewBox="0 0 32 32.653">
  <path id="Path_1" data-name="Path 1" d="M25.673,11.527a13.5,13.5,0,0,0-.408-3.347H10v6.073h8.98a8.134,8.134,0,0,1-3.331,5.257v4h5.159A15.875,15.875,0,0,0,25.673,11.527Z" transform="translate(6.327 5.175)" fill="#4285f4"/>
  <path id="Path_2" data-name="Path 2" d="M21.3,17.123a9.519,9.519,0,0,1-5.649,1.633A9.811,9.811,0,0,1,6.376,11.98H1.07v4.114a16.352,16.352,0,0,0,14.58,8.98,15.587,15.587,0,0,0,10.808-3.951l-5.159-4Z" transform="translate(0.677 7.579)" fill="#34a853"/>
  <path id="Path_3" data-name="Path 3" d="M6.514,12.841a10.452,10.452,0,0,1,.522-3.216V5.51H1.747a16.254,16.254,0,0,0,0,14.661l5.29-4.114a10.452,10.452,0,0,1-.522-3.216Z" transform="translate(0 3.486)" fill="#fbbc05"/>
  <path id="Path_4" data-name="Path 4" d="M15.65,6.335a9.014,9.014,0,0,1,6.286,2.416l4.637-4.506A15.689,15.689,0,0,0,15.65,0,16.337,16.337,0,0,0,1.07,9L6.36,13.11A9.848,9.848,0,0,1,15.65,6.335Z" transform="translate(0.677)" fill="#ea4335"/>
</svg>
